<svg id="scrunchNE" xmlns="http://www.w3.org/2000/svg" viewBox="0 0 17.92 17.91">
  <defs>
    <style>
      .cls-1 {
        fill: #a1a0a0;
      }
    </style>
  </defs>
  <title>scrunchNE</title>
  <g>
    <path class="cls-1" d="M23.46,16.73a.5.5,0,0,1-.5-.5V7H13.88a.5.5,0,0,1-.5-.5.5.5,0,0,1,.5-.5h9.58a.5.5,0,0,1,.5.5v9.69A.5.5,0,0,1,23.46,16.73Z" transform="translate(-6.04 -6.04)"/>
    <rect class="cls-1" x="10.99" y="2.3" width="4.63" height="4.63" rx="0.53" ry="0.53"/>
    <rect class="cls-1" x="5.49" y="7.79" width="4.63" height="4.63" rx="0.53" ry="0.53"/>
    <rect class="cls-1" y="13.28" width="4.63" height="4.63" rx="0.53" ry="0.53"/>
  </g>
</svg>
